<?xml version="1.0" encoding="utf-8"?>
<!-- Generator: Adobe Illustrator 23.0.2, SVG Export Plug-In . SVG Version: 6.00 Build 0)  -->
<svg version="1.1" xmlns="http://www.w3.org/2000/svg" xmlns:xlink="http://www.w3.org/1999/xlink" x="0px" y="0px"
	 viewBox="0 0 750 500" style="enable-background:new 0 0 750 500;" xml:space="preserve">
<style type="text/css">
	.st0{fill:url(#SVGID_1_);}
	.st1{opacity:0.05;fill:#FFFFFF;}
	.st2{fill:#FFFFFF;}
	.st3{fill:#ED978C;}
	.st4{opacity:0.7;fill:#FFFFFF;}
	.st5{opacity:0.3;fill:#FFFFFF;}
</style>
<g id="BACKGROUND">
	<g>
		<linearGradient id="SVGID_1_" gradientUnits="userSpaceOnUse" x1="370.9622" y1="500.4688" x2="379.3598" y2="-20.1816">
			<stop  offset="0.0179" style="stop-color:#FF847B"/>
			<stop  offset="0.3872" style="stop-color:#CC3D75"/>
			<stop  offset="1" style="stop-color:#4B3564"/>
		</linearGradient>
		<rect x="0" y="0" class="st0" width="750" height="500"/>
		<g>
			<polygon class="st1" points="-0.02,77.48 0.09,130.07 715.55,130.07 			"/>
			<polygon class="st1" points="45.98,195.48 749.98,184.48 749.98,234.98 			"/>
			<polygon class="st1" points="245.98,54.48 749.98,41.48 749.81,81.64 			"/>
			<polygon class="st1" points="0.09,251.57 624.06,287.57 0.09,287.57 			"/>
		</g>
	</g>
</g>
<g id="OBJECTS">
	<g>
		<g>
			<path class="st2" d="M521.1,121.83c11.36,6.44,25.8,2.45,32.24-8.91c6.27-11.07,2.65-25.05-8.04-31.72
				c5.07,0.04,10.2,1.34,14.93,4.01c14.82,8.4,20.02,27.22,11.62,42.04s-27.22,20.02-42.04,11.62c-8.7-4.93-14.09-13.46-15.35-22.66
				C516.25,118.42,518.47,120.34,521.1,121.83z"/>
			<g>
				<g>
					<path class="st3" d="M440.5,500.06c-0.19-35.6-29.11-64.39-64.75-64.39s-64.56,28.8-64.75,64.39H440.5z"/>
					<g>
						<path class="st4" d="M439.5,500.06c0,0,4-27.8,38.78-30.58s35.47,6.26,35.47,6.26s3.13-38.25,35.12-33.38
							s29.56,20.17,29.56,20.17s9.74-40.34,34.08-37.56s41.03,25.73,41.03,25.73s5.91-32.34,40.86-38.6
							c34.95-6.26,55.6,11.02,55.6,11.02l0,76.88L439.5,500.06z"/>
						<path class="st2" d="M750.02,464.76c0,0-22.52-22.95-51.73-16.69c-29.21,6.26-34.08,28.52-34.08,28.52s5.56-12.52-16.69-11.82
							c-22.26,0.7-21.56,10.43-21.56,10.43s-5.56-27.12-20.87-23.65c-15.3,3.48-13.91,25.73-13.91,25.73s-36.86-3.48-45.21,9.74
							c-8.35,13.21,4.73,13.01,4.73,13.01L750,500L750.02,464.76z"/>
					</g>
					<g>
						<path class="st4" d="M0.15,378.98c0,0,38.33-17.33,58.33,7.67s19,39,19,39s35.33-29.33,75-14c18.77,7.26,30.33,40,30.33,40
							s24.67-13,41.67-1s10,21,22,17s28-6.5,30,3.5s13,16.5,16,16.5s21.1,12.44,21.1,12.44L0,500L0.15,378.98z"/>
						<path class="st2" d="M0.02,414.36c0,0,5.58-8.79,21.08-2.79s12.83,31.83,12.83,31.83s29-12.5,36.5,7s5,25.5,5,25.5
							s9-27.75,30.5-19.25s15,24.25,15,24.25s16.5-23.5,35-14s15.5,21,15.5,21s17.5-11,26.5-4s11.44,15.91,11.44,15.91L0,500
							L0.02,414.36z"/>
					</g>
				</g>
				<g>
					<g>
						<path class="st4" d="M414.25,322.56c0,0-15,3.67-28.67,0.33c-13.67-3.33-15.33,1-37,1c-21.67,0-41-1.67-41-1.67
							s-5.33-4.33,7.67-5.33s22.67-6.33,29.67-14.33s29.67-1.33,38-4c8.33-2.67,17-17,32.33-16s10.67,8.33,20,1.33
							s13-22.5,26.33-20.17c13.33,2.33,10-9.5,28-14s28,22.83,28,22.83s10.5-14.83,25-13.33s29.5,17.17,29.5,17.17
							s7.5-9.17,15.5-2.17s7.5,17.17,7.5,17.17s3.4-7.49,9.17-6.5c11.67,2,13.08,14.25,13.08,14.25s2.58-7.42,18.58-4.42
							s12.17,9.5,17.17,11s18-2.83,22.5,4.17s1,6,11,6s30.83,6.17,26.33,8.67s-28.33,2.83-38.83,3.83s-37.5,3-55.5,2
							s-11.5-6.5-35.5-4s-24.75,14.33-43,3.5c-7-4.15-27-5-34.5-2.5c-7.5,2.5-25.83,9-39.33,0.5s-16.67-1-31.67,1
							S414.25,322.56,414.25,322.56z"/>
						<path class="st4" d="M267.75,342.56c0,0-15,3.67-28.67,0.33c-13.67-3.33-15.33,1-37,1s-41-1.67-41-1.67s-5.33-4.33,7.67-5.33
							s22.67-6.33,29.67-14.33s29.67-1.33,38-4c8.33-2.67,17-17,32.33-16s10.67,8.33,20,1.33s13-22.5,26.33-20.17
							c13.33,2.33,10-9.5,28-14s28,22.83,28,22.83s10.5-14.83,25-13.33s29.5,17.17,29.5,17.17s7.5-9.17,15.5-2.17
							s7.5,17.17,7.5,17.17s3.4-7.49,9.17-6.5c11.67,2,13.08,14.25,13.08,14.25s2.58-7.42,18.58-4.42s12.17,9.5,17.17,11
							s18-2.83,22.5,4.17s1,6,11,6s30.83,6.17,26.33,8.67s-28.33,2.83-38.83,3.83s-37.5,3-55.5,2s-11.5-6.5-35.5-4
							s-24.75,14.33-43,3.5c-7-4.15-27-5-34.5-2.5s-25.83,9-39.33,0.5s-16.67-1-31.67,1S267.75,342.56,267.75,342.56z"/>
					</g>
					<g>
						<path class="st5" d="M298.6,234.99c0,0-9.2,1.1-7.89,3.97c1.31,2.87,18.07-1.32,23-1.1c4.93,0.22,14.13,2.21,19.39,0
							c5.26-2.21,27.93,4.63,33.19,1.1c5.26-3.53,15.44-0.66,24.64,0.22c9.2,0.88,14.46-3.75,14.46-4.41s1.44-2.07-7.56-1.54
							s-8.63-1.49-10.84-3.8c-2.22-2.32-7.64-6.29-13.8-4.3c0,0-0.74-7.44-11.09-7.94c-10.35-0.5-12.32,4.8-12.32,4.8
							s-7.39-4.3-18.48-2.65c-11.09,1.65-12.81,7.28-12.81,7.28s-1.97,0.99-7.89,1.49C304.67,228.59,296.21,231.62,298.6,234.99z"/>
						<path class="st5" d="M42.01,324.4c0,0-9.2,1.1-7.89,3.97c1.31,2.87,18.07-1.32,23-1.1s14.13,2.21,19.39,0
							c5.26-2.21,27.93,4.63,33.19,1.1c5.26-3.53,15.44-0.66,24.64,0.22s14.46-3.75,14.46-4.41s1.44-2.07-7.56-1.54
							c-9,0.53-8.63-1.49-10.84-3.8c-2.22-2.32-7.64-6.29-13.8-4.3c0,0-0.74-7.44-11.09-7.94c-10.35-0.5-12.32,4.8-12.32,4.8
							s-7.39-4.3-18.48-2.65c-11.09,1.65-12.81,7.28-12.81,7.28s-1.97,0.99-7.89,1.49C48.08,318,39.62,321.03,42.01,324.4z"/>
						<path class="st5" d="M493.59,194.49c0,0-9.2,1.1-7.89,3.97c1.31,2.87,18.07-1.32,23-1.1s14.13,2.21,19.39,0
							c5.26-2.21,27.93,4.63,33.19,1.1c5.26-3.53,15.44-0.66,24.64,0.22c9.2,0.88,14.46-3.75,14.46-4.41s12.36-1.04,0.86-7.79
							c-7.77-4.56-7.03-2.18-9.25-4.5c-2.22-2.32-8.34-4.23-14.5-2.25c0,0-7.4-9-17.75-9.5c-10.35-0.5-14.97,11.25-14.97,11.25
							s-7.39-4.3-18.48-2.65c-11.09,1.65-12.81,7.28-12.81,7.28s-1.97,0.99-7.89,1.49C499.66,188.09,491.2,191.13,493.59,194.49z"/>
						<path class="st5" d="M108.59,97.49c0,0-9.2,1.1-7.89,3.97c1.31,2.87,18.07-1.32,23-1.1s14.13,2.21,19.39,0
							c5.26-2.21,27.93,4.63,33.19,1.1c5.26-3.53,15.44-0.66,24.64,0.22c9.2,0.88,14.46-3.75,14.46-4.41s12.36-1.04,0.86-7.79
							c-7.77-4.56-7.03-2.18-9.25-4.5c-2.22-2.32-8.34-4.23-14.5-2.25c0,0-7.4-9-17.75-9.5c-10.35-0.5-14.97,11.25-14.97,11.25
							s-7.39-4.3-18.48-2.65c-11.09,1.65-12.81,7.28-12.81,7.28s-1.97,0.99-7.89,1.49C114.66,91.09,106.2,94.13,108.59,97.49z"/>
						<path class="st5" d="M181.59,409.49c0,0-9.2,1.1-7.89,3.97s18.07-1.32,23-1.1s14.13,2.21,19.39,0
							c5.26-2.21,27.93,4.63,33.19,1.1s15.44-0.66,24.64,0.22s14.46-3.75,14.46-4.41s12.36-1.04,0.86-7.79
							c-7.77-4.56-7.03-2.18-9.25-4.5c-2.22-2.32-8.34-4.23-14.5-2.25c0,0-7.4-9-17.75-9.5c-10.35-0.5-14.97,11.25-14.97,11.25
							s-7.39-4.3-18.48-2.65c-11.09,1.65-12.81,7.28-12.81,7.28s-1.97,0.99-7.89,1.49C187.66,403.09,179.2,406.13,181.59,409.49z"/>
						<path class="st5" d="M485.59,415.49c0,0-9.2,1.1-7.89,3.97s18.07-1.32,23-1.1c4.93,0.22,14.13,2.21,19.39,0
							c5.26-2.21,27.93,4.63,33.19,1.1s15.44-0.66,24.64,0.22c9.2,0.88,14.46-3.75,14.46-4.41s12.36-1.04,0.86-7.79
							c-7.77-4.56-7.03-2.18-9.25-4.5c-2.22-2.32-8.34-4.23-14.5-2.25c0,0-7.4-9-17.75-9.5c-10.35-0.5-14.97,11.25-14.97,11.25
							s-7.39-4.3-18.48-2.65c-11.09,1.65-12.81,7.28-12.81,7.28s-1.97,0.99-7.89,1.49C491.66,409.09,483.2,412.13,485.59,415.49z"/>
					</g>
					<g>
						<path class="st4" d="M42.95,213.24c0,0-15.26,2.73-13.08,9.81c2.18,7.09,29.98-3.27,38.15-2.73
							c8.18,0.55,23.24,12.61,31.96,7.16c8.72-5.45,41.28,14.22,50,5.5c8.72-8.72,27.74-2.01,43,0.17s25-12.36,25-14
							s3.13,1.22,6.67-13.33c2.77-11.4-19.65-12.28-23.33-18c-3.68-5.72-24.43-3.87-34.65,1.04c0,0-1.23-18.39-18.39-19.62
							s-20.44,11.85-20.44,11.85s-12.26-10.63-30.66-6.54c-18.39,4.09-21.26,17.99-21.26,17.99s-3.27,2.45-13.08,3.68
							S38.99,204.92,42.95,213.24z"/>
						<path class="st4" d="M273.36,150.96c0,0-15.26,2.73-13.08,9.81c2.18,7.09,29.98-3.27,38.15-2.73c8.18,0.55,23.44,5.45,32.16,0
							s46.33,11.45,55.05,2.73c8.72-8.72,25.62-1.64,40.88,0.55s23.98-9.27,23.98-10.9c0-1.64,2.39-5.12-12.54-3.82
							c-14.92,1.3-14.31-3.68-17.99-9.4c-3.68-5.72-12.67-15.53-22.89-10.63c0,0-1.23-18.39-18.39-19.62s-20.44,11.85-20.44,11.85
							s-12.26-10.63-30.66-6.54c-18.39,4.09-21.26,17.99-21.26,17.99s-3.27,2.45-13.08,3.68
							C283.45,135.16,269.41,142.65,273.36,150.96z"/>
						<path class="st4" d="M622.81,199.67c0,0-9.03,1.61-7.74,5.81c1.29,4.19,17.74-1.94,22.58-1.61s13.87,3.23,19.03,0
							c5.16-3.23,27.42,6.77,32.58,1.61c5.16-5.16,15.16-0.97,24.19,0.32c9.03,1.29,14.19-5.48,14.19-6.45
							c0-0.97,1.41-3.03-7.42-2.26c-8.83,0.77-8.47-2.18-10.65-5.56s-7.5-9.19-13.55-6.29c0,0-0.73-10.89-10.89-11.61
							s-12.1,7.02-12.1,7.02s-7.26-6.29-18.15-3.87c-10.89,2.42-12.58,10.65-12.58,10.65s-1.94,1.45-7.74,2.18
							C628.78,190.31,620.47,194.75,622.81,199.67z"/>
					</g>
				</g>
			</g>
		</g>
		<g>
			<ellipse class="st2" cx="193.31" cy="48.56" rx="3.21" ry="3.25"/>
			<ellipse class="st2" cx="295.37" cy="110.58" rx="3.21" ry="3.25"/>
			<ellipse class="st2" cx="239.48" cy="158.98" rx="1.65" ry="1.67"/>
			<ellipse class="st2" cx="246.08" cy="232.07" rx="1.65" ry="1.67"/>
			<ellipse class="st2" cx="76.74" cy="260.57" rx="1.65" ry="1.67"/>
			<ellipse class="st2" cx="107.98" cy="320.15" rx="1.65" ry="1.67"/>
			<ellipse class="st2" cx="159.98" cy="256.8" rx="1.65" ry="1.67"/>
			<ellipse class="st2" cx="45.31" cy="181.98" rx="1.65" ry="1.67"/>
			<ellipse class="st2" cx="572.91" cy="269.57" rx="1.65" ry="1.67"/>
			<ellipse class="st2" cx="532.56" cy="203.74" rx="1.65" ry="1.67"/>
			<ellipse class="st2" cx="349.42" cy="203.57" rx="1.65" ry="1.67"/>
			<ellipse class="st2" cx="501.98" cy="374.8" rx="1.65" ry="1.67"/>
			<ellipse class="st2" cx="603.06" cy="387.89" rx="1.65" ry="1.67"/>
			<ellipse class="st2" cx="679.63" cy="361.81" rx="1.65" ry="1.67"/>
			<ellipse class="st2" cx="215.98" cy="382.48" rx="1.65" ry="1.67"/>
			<ellipse class="st2" cx="118.58" cy="372.89" rx="1.65" ry="1.67"/>
			<ellipse class="st2" cx="297.07" cy="381.89" rx="1.65" ry="1.67"/>
			<ellipse class="st2" cx="212.33" cy="308.39" rx="1.65" ry="1.67"/>
			<ellipse class="st2" cx="690.33" cy="246.48" rx="1.65" ry="1.67"/>
			<ellipse class="st2" cx="659.31" cy="293.48" rx="1.65" ry="1.67"/>
			<ellipse class="st2" cx="397.24" cy="265.06" rx="1.65" ry="1.67"/>
			<ellipse class="st2" cx="288.33" cy="292.48" rx="1.65" ry="1.67"/>
			<ellipse class="st2" cx="636.67" cy="112.67" rx="1.65" ry="1.67"/>
			<ellipse class="st2" cx="471.22" cy="92.58" rx="1.65" ry="1.67"/>
			<ellipse class="st2" cx="663.5" cy="56.5" rx="1.65" ry="1.67"/>
			<ellipse class="st2" cx="665.67" cy="149" rx="1.65" ry="1.67"/>
			<ellipse class="st2" cx="354.07" cy="53.4" rx="1.65" ry="1.67"/>
			<ellipse class="st2" cx="382.48" cy="90.48" rx="1.65" ry="1.67"/>
			<ellipse class="st2" cx="208.58" cy="105.9" rx="1.65" ry="1.67"/>
			<ellipse class="st2" cx="101.93" cy="46.08" rx="1.65" ry="1.67"/>
			<ellipse class="st2" cx="85.58" cy="143.57" rx="1.65" ry="1.67"/>
			<ellipse class="st2" cx="428.86" cy="56.58" rx="3.21" ry="3.25"/>
			<ellipse class="st2" cx="441.07" cy="182.57" rx="3.21" ry="3.25"/>
			<ellipse class="st2" cx="695" cy="103.67" rx="3.21" ry="3.25"/>
			<ellipse class="st2" cx="169.08" cy="154.07" rx="3.21" ry="3.25"/>
			<ellipse class="st2" cx="57.29" cy="92.58" rx="3.21" ry="3.25"/>
			<ellipse class="st2" cx="141.61" cy="102.23" rx="3.21" ry="3.25"/>
		</g>
	</g>
</g>
</svg>
